<svg id="Layer_1" data-name="Layer 1" xmlns="http://www.w3.org/2000/svg" viewBox="0 0 100.43 177.25"><defs><style>.cls-1{fill:none;stroke:#fff;stroke-width:3px;}</style></defs><title>gadget-tl</title><path id="path8800" class="cls-1" d="M42.84,91.11A20.86,20.86,0,1,1,22,70.25,20.86,20.86,0,0,1,42.84,91.11Z" transform="translate(0.38 -1.29)"/><path id="path8802" class="cls-1" d="M22,91.59V66.37" transform="translate(0.38 -1.29)"/><path id="path4508" class="cls-1" d="M65.91,77.51h31c.92,0,1.66,5.51,1.66,12.35s-.74,12.35-1.66,12.35h-31c-.92,0-1.66-5.51-1.66-12.35S65,77.51,65.91,77.51Z" transform="translate(0.38 -1.29)"/><path id="path8806" class="cls-1" d="M42.84,26A20.86,20.86,0,1,1,22,5.17,20.86,20.86,0,0,1,42.84,26Z" transform="translate(0.38 -1.29)"/><path id="path8808" class="cls-1" d="M22,26.52V1.29" transform="translate(0.38 -1.29)"/><path id="path4510" class="cls-1" d="M65.91,19.25h31c.92,0,1.66,5.51,1.66,12.35S97.81,44,96.89,44h-31c-.92,0-1.66-5.51-1.66-12.35S65,19.25,65.91,19.25Z" transform="translate(0.38 -1.29)"/><path id="path8800-2" data-name="path8800" class="cls-1" d="M42.84,156.18A20.86,20.86,0,1,1,22,135.32,20.86,20.86,0,0,1,42.84,156.18Z" transform="translate(0.38 -1.29)"/><path id="path8802-2" data-name="path8802" class="cls-1" d="M22,156.67V131.44" transform="translate(0.38 -1.29)"/><path id="path4508-2" data-name="path4508" class="cls-1" d="M65.91,142.58h31c.92,0,1.66,5.51,1.66,12.35s-.74,12.35-1.66,12.35h-31c-.92,0-1.66-5.51-1.66-12.35S65,142.58,65.91,142.58Z" transform="translate(0.38 -1.29)"/></svg>