<?xml version="1.0" encoding="utf-8"?>
<!-- Generator: Adobe Illustrator 22.0.1, SVG Export Plug-In . SVG Version: 6.00 Build 0)  -->
<svg version="1.1" xmlns="http://www.w3.org/2000/svg" xmlns:xlink="http://www.w3.org/1999/xlink" x="0px" y="0px"
	 viewBox="0 0 100.3 179" style="enable-background:new 0 0 100.3 179;" xml:space="preserve">
<style type="text/css">
	.st0{fill:none;stroke:#FFFFFF;stroke-width:3;}
</style>
<g>
	<path inkscape:connector-curvature="0" class="st0" d="M42.8,91.1c0,11.5-9.3,20.9-20.9,20.9S1.1,102.6,1.1,91.1
		S10.5,70.2,22,70.2S42.8,79.6,42.8,91.1z"/>
	<path inkscape:connector-curvature="0" sodipodi:nodetypes="cc" class="st0" d="M22,91.6V66.4"/>
	<path inkscape:connector-curvature="0" class="st0" d="M65.9,77.5h31c0.9,0,1.7,5.5,1.7,12.3s-0.7,12.3-1.7,12.3h-31
		c-0.9,0-1.7-5.5-1.7-12.3S65,77.5,65.9,77.5z"/>
</g>
<g>
	<path inkscape:connector-curvature="0" class="st0" d="M42.8,26c0,11.5-9.3,20.9-20.9,20.9S1.1,37.6,1.1,26
		S10.5,5.2,22,5.2S42.8,14.5,42.8,26z"/>
	<path inkscape:connector-curvature="0" sodipodi:nodetypes="cc" class="st0" d="M22,26.5V1.3"/>
	<path inkscape:connector-curvature="0" class="st0" d="M65.9,19.2h31c0.9,0,1.7,5.5,1.7,12.3s-0.7,12.3-1.7,12.3h-31
		c-0.9,0-1.7-5.5-1.7-12.3S65,19.2,65.9,19.2z"/>
</g>
<g>
	<path inkscape:connector-curvature="0" class="st0" d="M42.8,156.2c0,11.5-9.3,20.9-20.9,20.9
		s-20.9-9.3-20.9-20.9s9.3-20.9,20.9-20.9S42.8,144.7,42.8,156.2z"/>
	<path inkscape:connector-curvature="0" sodipodi:nodetypes="cc" class="st0" d="M22,156.7v-25.2"/>
	<path inkscape:connector-curvature="0" class="st0" d="M65.9,142.6h31c0.9,0,1.7,5.5,1.7,12.3s-0.7,12.3-1.7,12.3
		h-31c-0.9,0-1.7-5.5-1.7-12.3S65,142.6,65.9,142.6z"/>
</g>
<g>
</g>
<g>
</g>
<g>
</g>
<g>
</g>
<g>
</g>
<g>
</g>
<g>
</g>
<g>
</g>
<g>
</g>
<g>
</g>
<g>
</g>
</svg>
