<?xml version="1.0" encoding="utf-8"?>
<!-- Generator: Adobe Illustrator 22.0.1, SVG Export Plug-In . SVG Version: 6.00 Build 0)  -->
<svg version="1.1" id="Layer_1" xmlns="http://www.w3.org/2000/svg" xmlns:xlink="http://www.w3.org/1999/xlink" x="0px" y="0px"
	 viewBox="0 0 241.7 81.8" style="enable-background:new 0 0 241.7 81.8;" xml:space="preserve">
<style type="text/css">
	.st0{fill:none;stroke:#FFFFFF;stroke-width:4;stroke-linecap:round;}
	.st1{fill:none;stroke:#FFFFFF;stroke-width:3;}
</style>
<title>tempo-background-horizontal</title>
<line class="st0" x1="236" y1="5.8" x2="2" y2="5.8"/>
<path id="path4314" class="st1" d="M57.1,27.4V78c0,1.5-9,2.7-20.2,2.7S16.7,79.5,16.7,78V27.4c0-1.5,9-2.7,20.2-2.7
	S57.1,25.9,57.1,27.4z"/>
<path id="path4256" class="st1" d="M95.7,58.3c-9.3,0-16.8-7.5-16.8-16.8s7.5-16.8,16.8-16.8c9.3,0,16.8,7.5,16.8,16.8l0,0
	C112.5,50.7,105,58.3,95.7,58.3C95.7,58.3,95.7,58.3,95.7,58.3L95.7,58.3z"/>
</svg>
